# xmcd CD database file
#
# Track frame offsets:
#	150
#	13690
#	30482
#	46830
#	65385
#	86160
#	109410
#	127475
#	141765
#	158677
#	173002
#	192512
#	207887
#
# Disc length: 2997 seconds
#
# Revision: 0
# Processed by: cddbd v1.5.1PL0 Copyright (c) Steve Scherf et al.
# Submitted via: CDex 1.51
#
DISCID=b60bb30d
DTITLE=ARTS - Authentic Rocksteady Traditional Ska
DYEAR=2002
DGENRE=Ska
TTITLE0=RUDE UP!
TTITLE1=ALL YOU NEED IS SKA!
TTITLE2=SKASKIE
TTITLE3=POP LIFE
TTITLE4=BLUE NOVA
TTITLE5=CAROLINE
TTITLE6=SPIRITS SHUFFLE
TTITLE7=AFRO FREAK
TTITLE8=LOVERS' PLEDGE
TTITLE9=POKER FACE
TTITLE10=GO!SKA GO!
TTITLE11=WE LOVE SKA
TTITLE12=BONUS TRACK
EXTD=YEAR: 2002
EXTT0=
EXTT1=
EXTT2=
EXTT3=
EXTT4=
EXTT5=
EXTT6=
EXTT7=
EXTT8=
EXTT9=
EXTT10=
EXTT11=
EXTT12=
PLAYORDER=
